HIERARCHY
ROOT Hips
{
	OFFSET 0.000000 0.000000 0.000000
	CHANNELS 6 Xposition Yposition Zposition Xrotation Yrotation Zrotation
	JOINT LeftUpLeg_virtual
	{
		OFFSET 0.000000 0.000000 0.000000
		CHANNELS 3 Xrotation Yrotation Zrotation
		JOINT LeftUpLeg
		{
			OFFSET 10.205400 -3.823500 0.155100
			CHANNELS 3 Xrotation Yrotation Zrotation
			JOINT LeftLeg
			{
				OFFSET 0.708757 -12.982077 0.567790
				CHANNELS 3 Xrotation Yrotation Zrotation
				JOINT LeftFoot
				{
					OFFSET -0.708756 -10.717838 -2.184338
					CHANNELS 3 Xrotation Yrotation Zrotation
					JOINT LeftToeBase
					{
						OFFSET 0.108149 -7.191104 7.560241
						CHANNELS 3 Xrotation Yrotation Zrotation
						JOINT LeftToe_End
						{
							OFFSET 0.070230 0.081724 4.490308
							CHANNELS 3 Xrotation Yrotation Zrotation
							End Site
							{
								OFFSET 0 0 0
							}
						}
					}
				}
			}
		}
	}
	JOINT RightUpLeg_virtual
	{
		OFFSET 0.000000 0.000000 0.000000
		CHANNELS 3 Xrotation Yrotation Zrotation
		JOINT RightUpLeg
		{
			OFFSET -10.205400 -3.823500 0.005500
			CHANNELS 3 Xrotation Yrotation Zrotation
			JOINT RightLeg
			{
				OFFSET -0.708756 -12.982134 0.610632
				CHANNELS 3 Xrotation Yrotation Zrotation
				JOINT RightFoot
				{
					OFFSET 0.708754 -10.717769 -1.945823
					CHANNELS 3 Xrotation Yrotation Zrotation
					JOINT RightToeBase
					{
						OFFSET -0.108140 -7.191069 7.372968
						CHANNELS 3 Xrotation Yrotation Zrotation
						JOINT RightToe_End
						{
							OFFSET -0.070227 0.081735 4.479403
							CHANNELS 3 Xrotation Yrotation Zrotation
							End Site
							{
								OFFSET 0 0 0
							}
						}
					}
				}
			}
		}
	}
	JOINT Spine_virtual
	{
		OFFSET 0.000000 0.000000 0.000000
		CHANNELS 3 Xrotation Yrotation Zrotation
		JOINT Spine
		{
			OFFSET 0.000000 6.876099 0.125700
			CHANNELS 3 Xrotation Yrotation Zrotation
			JOINT Spine1
			{
				OFFSET 0.000000 5.730043 0.104720
				CHANNELS 3 Xrotation Yrotation Zrotation
				JOINT Spine1_split
				{
					OFFSET 0.000000 5.730043 0.104720
					CHANNELS 3 Xrotation Yrotation Zrotation
					JOINT Spine2
					{
						OFFSET 0.000000 5.730043 0.104720
						CHANNELS 3 Xrotation Yrotation Zrotation
						JOINT Neck_virtual
						{
							OFFSET 0.000000 0.000000 0.000000
							CHANNELS 3 Xrotation Yrotation Zrotation
							JOINT Neck
							{
								OFFSET 0.000000 10.314075 0.188496
								CHANNELS 3 Xrotation Yrotation Zrotation
								JOINT Head
								{
									OFFSET 0.000000 7.643700 -2.377400
									CHANNELS 3 Xrotation Yrotation Zrotation
									JOINT HeadTop_End
									{
										OFFSET 0.000000 43.788605 -13.619600
										CHANNELS 3 Xrotation Yrotation Zrotation
										End Site
										{
											OFFSET 0 0 0
										}
									}
								}
							}
						}
						JOINT LeftShoulder_virtual
						{
							OFFSET 0.000000 0.000000 0.000000
							CHANNELS 3 Xrotation Yrotation Zrotation
							JOINT LeftShoulder
							{
								OFFSET 2.196100 4.412489 0.087492
								CHANNELS 3 Xrotation Yrotation Zrotation
								JOINT LeftShoulder_split
								{
									OFFSET 2.196100 4.412489 0.087492
									CHANNELS 3 Xrotation Yrotation Zrotation
									JOINT LeftArm
									{
										OFFSET 8.771219 -2.981674 -0.026999
										CHANNELS 3 Xrotation Yrotation Zrotation
										JOINT LeftForeArm
										{
											OFFSET 8.512804 0.000000 -0.000000
											CHANNELS 3 Xrotation Yrotation Zrotation
											JOINT LeftHand
											{
												OFFSET 18.484802 0.000000 -0.000000
												CHANNELS 3 Xrotation Yrotation Zrotation
												End Site
												{
													OFFSET 0 0 0
												}
											}
										}
									}
								}
							}
						}
						JOINT RightShoulder_virtual
						{
							OFFSET 0.000000 0.000000 0.000000
							CHANNELS 3 Xrotation Yrotation Zrotation
							JOINT RightShoulder
							{
								OFFSET -2.196100 4.412496 0.070690
								CHANNELS 3 Xrotation Yrotation Zrotation
								JOINT RightShoulder_split
								{
									OFFSET -2.196100 4.412496 0.070690
									CHANNELS 3 Xrotation Yrotation Zrotation
									JOINT RightArm
									{
										OFFSET -8.771282 -2.981682 -0.094208
										CHANNELS 3 Xrotation Yrotation Zrotation
										JOINT RightForeArm
										{
											OFFSET -8.494598 0.000000 0.000000
											CHANNELS 3 Xrotation Yrotation Zrotation
											JOINT RightHand
											{
												OFFSET -18.483803 0.000000 0.000001
												CHANNELS 3 Xrotation Yrotation Zrotation
												End Site
												{
													OFFSET 0 0 0
												}
											}
										}
									}
								}
							}
						}
					}
				}
			}
		}
	}
}
MOTION
Frames: 8
Frame Time: 0.03333333
1.161121 50.070255 7.350156 0.000000 0.000000 0.000000 3.749972 -37.544092 3.199321 -80.096406 -21.744700 32.902732 85.306699 0.699156 9.014064 -6.089658 0.428690 -1.887932 0.031750 -0.007721 0.000033 0.000000 0.000000 0.000000 3.749972 -37.544092 3.199321 -130.615074 -46.578403 -4.035301 121.988736 11.889414 -14.517094 25.223279 2.756261 29.056451 0.004143 0.000162 -0.000322 0.000000 0.000000 0.000000 3.749972 -37.544092 3.199321 31.628704 -4.438125 -10.300595 14.129386 0.964742 -3.082682 0.000000 0.000000 0.000000 0.000000 0.000000 0.000000 14.083551 0.916927 -3.297919 -8.677493 21.443473 -12.816593 -25.381082 13.620606 5.249198 0.000000 0.000000 0.000000 14.083551 0.916927 -3.297919 11.474066 -16.374154 4.408425 0.000000 0.000000 0.000000 -62.668809 -4.844730 -3.758218 45.767670 -24.019431 29.511130 0.000000 0.000000 0.000000 14.083551 0.916927 -3.297919 18.189229 24.092155 -9.603794 0.000000 0.000000 0.000000 -33.453146 6.374195 2.980952 -41.939202 39.311133 29.275868 0.000000 0.000000 0.000000 
1.159355 50.056591 7.330914 0.000000 0.000000 0.000000 3.802749 -37.723022 3.308398 -80.133193 -21.701248 32.867096 85.278375 0.611453 8.969613 -6.086457 0.648772 -1.973269 0.022379 -0.007756 0.000022 0.000000 0.000000 0.000000 3.802749 -37.723022 3.308398 -130.140935 -46.654215 -4.002807 121.755253 11.983660 -14.540868 24.887095 2.671044 28.833247 0.005032 0.000187 -0.000313 0.000000 0.000000 0.000000 3.802749 -37.723022 3.308398 31.627088 -4.477669 -10.307535 14.121953 0.959990 -3.082251 0.000000 0.000000 0.000000 0.000000 0.000000 0.000000 14.068834 0.912802 -3.297113 -8.610289 21.493203 -12.821328 -25.195723 13.750095 5.199519 0.000000 0.000000 0.000000 14.068834 0.912802 -3.297113 11.267102 -16.494268 3.552149 0.000000 0.000000 0.000000 -61.836414 -4.277160 -3.867896 45.655331 -23.778477 29.256678 0.000000 0.000000 0.000000 14.068834 0.912802 -3.297113 17.871458 24.380048 -8.840628 0.000000 0.000000 0.000000 -32.509672 6.730314 2.966676 -41.608085 38.845174 28.745698 0.000000 0.000000 0.000000 
1.168590 50.039421 7.308910 0.000000 0.000000 0.000000 3.860000 -37.853328 3.416162 -80.146806 -21.641270 32.813875 85.154017 0.581221 8.951670 -6.064390 0.768153 -2.086838 0.013803 -0.007785 -0.000028 0.000000 0.000000 0.000000 3.860000 -37.853328 3.416162 -129.615953 -46.695394 -3.953736 121.534856 12.080285 -14.558207 24.519899 2.574529 28.664149 0.005038 0.000179 -0.000331 0.000000 0.000000 0.000000 3.860000 -37.853328 3.416162 31.597975 -4.507632 -10.302427 14.084157 0.946259 -3.078775 0.000000 0.000000 0.000000 0.000000 0.000000 0.000000 14.024742 0.902259 -3.293460 -8.559990 21.556442 -12.797784 -24.976441 13.886575 5.176315 0.000000 0.000000 0.000000 14.024742 0.902259 -3.293460 11.087247 -16.530122 2.819689 0.000000 0.000000 0.000000 -61.258853 -3.422796 -3.756279 45.583545 -23.623787 29.096179 0.000000 0.000000 0.000000 14.024742 0.902259 -3.293460 17.522825 24.569650 -8.065069 0.000000 0.000000 0.000000 -31.766595 6.787542 2.888681 -41.306276 38.411765 28.260114 0.000000 0.000000 0.000000 
1.182793 50.021137 7.287061 0.000000 0.000000 0.000000 3.920687 -37.924817 3.522448 -80.147195 -21.571904 32.724304 84.972150 0.717296 9.007922 -6.057527 0.693819 -2.143291 -0.002645 -0.007778 0.000007 0.000000 0.000000 0.000000 3.920687 -37.924817 3.522448 -129.057148 -46.708139 -3.903588 121.326016 12.220335 -14.575917 24.108350 2.479416 28.570435 0.004505 0.000165 -0.000388 0.000000 0.000000 0.000000 3.920687 -37.924817 3.522448 31.551810 -4.531784 -10.287098 14.021896 0.921090 -3.071940 0.000000 0.000000 0.000000 0.000000 0.000000 0.000000 13.962289 0.883274 -3.285266 -8.535242 21.652840 -12.746677 -24.714394 14.082423 5.207963 0.000000 0.000000 0.000000 13.962289 0.883274 -3.285266 10.892940 -16.486460 2.082147 0.000000 0.000000 0.000000 -60.703484 -2.446166 -3.677428 45.522798 -23.492936 28.962345 0.000000 0.000000 0.000000 13.962289 0.883274 -3.285266 17.154418 24.738902 -7.233029 0.000000 0.000000 0.000000 -30.927438 6.665499 2.774250 -41.041398 38.023527 27.831320 0.000000 0.000000 0.000000 
1.191001 50.005722 7.258322 0.000000 0.000000 0.000000 3.983823 -37.993177 3.636189 -80.078176 -21.418578 32.633701 84.787755 0.981296 9.127952 -6.207626 0.677032 -2.187664 -0.087888 -0.007723 0.000004 0.000000 0.000000 0.000000 3.983823 -37.993177 3.636189 -128.465886 -46.728452 -3.828556 121.102013 12.323639 -14.596107 23.692936 2.381647 28.454394 0.003640 0.000191 -0.000350 0.000000 0.000000 0.000000 3.983823 -37.993177 3.636189 31.476479 -4.550249 -10.273002 13.939579 0.894833 -3.064067 0.000000 0.000000 0.000000 0.000000 0.000000 0.000000 13.883517 0.860892 -3.274872 -8.539692 21.727076 -12.632804 -24.434537 14.133018 5.300543 0.000000 0.000000 0.000000 13.883517 0.860892 -3.274872 10.735030 -16.337305 1.386294 0.000000 0.000000 0.000000 -60.173366 -1.363569 -3.614959 45.514817 -23.476716 28.951949 0.000000 0.000000 0.000000 13.883517 0.860892 -3.274872 16.731853 24.898384 -6.280326 0.000000 0.000000 0.000000 -30.228440 6.296620 2.609967 -40.812166 37.681355 27.458137 0.000000 0.000000 0.000000 
1.183623 49.975475 7.232448 0.000000 0.000000 0.000000 4.048701 -38.065454 3.748345 -79.973742 -21.187438 32.522397 84.548412 -0.041849 8.567350 -6.280819 1.846624 -1.870609 -0.104823 -0.007787 0.000035 0.000000 0.000000 0.000000 4.048701 -38.065454 3.748345 -127.983593 -46.837179 -3.739401 120.910959 12.322744 -14.624999 23.305451 2.296075 28.311783 0.002753 0.000209 -0.000365 0.000000 0.000000 0.000000 4.048701 -38.065454 3.748345 31.360544 -4.552246 -10.254143 13.829177 0.878561 -3.055081 0.000000 0.000000 0.000000 0.000000 0.000000 0.000000 13.789080 0.840562 -3.264780 -8.466580 21.759492 -12.563931 -24.132027 14.143988 5.284627 0.000000 0.000000 0.000000 13.789080 0.840562 -3.264780 10.586196 -16.074454 0.690718 0.000000 0.000000 0.000000 -59.669755 -0.103456 -3.407534 45.509083 -23.467675 28.949835 0.000000 0.000000 0.000000 13.789080 0.840562 -3.264780 16.299220 25.012682 -5.338998 0.000000 0.000000 0.000000 -29.588513 5.724245 2.407797 -40.616178 37.384518 27.137559 0.000000 0.000000 0.000000 
1.181135 49.956070 7.210773 0.000000 0.000000 0.000000 4.114144 -38.136788 3.863581 -79.820726 -20.984197 32.433205 84.291487 -0.132125 8.498088 -6.473875 2.112921 -1.813373 -0.163477 -0.007744 0.000018 0.000000 0.000000 0.000000 4.114144 -38.136788 3.863581 -127.514359 -46.876688 -3.679338 120.720670 12.389406 -14.645536 22.930350 2.209520 28.188829 0.002048 0.000184 -0.000408 0.000000 0.000000 0.000000 4.114144 -38.136788 3.863581 31.204228 -4.543254 -10.223624 13.709094 0.874861 -3.047963 0.000000 0.000000 0.000000 0.000000 0.000000 0.000000 13.675692 0.830840 -3.256746 -8.469498 21.756092 -12.593178 -24.037172 14.197860 5.281776 0.000000 0.000000 0.000000 13.675692 0.830840 -3.256746 10.445834 -15.713993 0.015647 0.000000 0.000000 0.000000 -59.222842 1.242577 -3.173081 45.509209 -23.473451 28.963421 0.000000 0.000000 0.000000 13.675692 0.830840 -3.256746 15.883429 25.065116 -4.464592 0.000000 0.000000 0.000000 -29.019162 5.005178 2.195796 -40.450098 37.131514 26.866242 0.000000 0.000000 0.000000 
1.174546 49.937725 7.194513 0.000000 0.000000 0.000000 4.180168 -38.215359 3.977931 -79.604953 -20.772535 32.375827 83.992353 -0.352790 8.366947 -6.731986 2.454725 -1.789222 -0.164297 -0.007736 0.000024 0.000000 0.000000 0.000000 4.180168 -38.215359 3.977931 -127.194815 -46.913281 -3.657238 120.583903 12.394552 -14.658826 22.606388 2.147400 28.040963 0.001892 0.000152 -0.000377 0.000000 0.000000 0.000000 4.180168 -38.215359 3.977931 31.027046 -4.502370 -10.163694 13.586279 0.877301 -3.036970 0.000000 0.000000 0.000000 0.000000 0.000000 0.000000 13.547668 0.831896 -3.248915 -8.410979 21.717483 -12.630172 -23.881593 14.196202 5.208122 0.000000 0.000000 0.000000 13.547668 0.831896 -3.248915 10.297261 -15.271162 -0.647865 0.000000 0.000000 0.000000 -58.848596 2.671685 -2.870562 45.519007 -23.501264 28.999744 0.000000 0.000000 0.000000 13.547668 0.831896 -3.248915 15.533904 25.035044 -3.731443 0.000000 0.000000 0.000000 -28.502868 3.868203 1.818860 -40.435502 37.112796 26.845473 0.000000 0.000000 0.000000 
